<svg xmlns="http://www.w3.org/2000/svg" width="400" height="400" viewBox="0 0 124 124" fill="none">
  <rect width="124" height="124" rx="24" fill="#F97316"/>
  <path d="M19.375 36.7818V100.625C19.375 102.834 21.1659 104.625 23.375 104.625H87.2181C90.7818 104.625 92.5664 100.316 90.0466 97.7966L26.2034 33.9534C23.6836 31.4336 19.375 33.2182 19.375 36.7818Z" fill="white"/>

  <!-- Message bubble instead of black circle -->
  <path d="M63.2109 19.375C54.1609 19.375 46.5468 25.4891 46.5468 33.0391C46.5468 38.1891 49.8359 42.6141 54.7109 44.9141L54.0859 50.1641C53.9359 51.0141 54.9109 51.6391 55.6609 51.1641L62.2859 46.9141C62.5859 46.9141 62.8859 46.9391 63.2109 46.9391C72.2609 46.9391 79.8749 40.8250 79.8749 33.2750C79.8749 25.7250 72.2609 19.375 63.2109 19.375Z" fill="black"/>

  <rect opacity="0.4" x="81.1328" y="80.7198" width="17.5687" height="17.3876" rx="4" transform="rotate(-45 81.1328 80.7198)" fill="#FDBA74"/>
</svg>
